<svg width="256" height="256" viewBox="0 0 256 256" fill="none" xmlns="http://www.w3.org/2000/svg">
<g clip-path="url(#clip0_2_2)">
<mask id="mask0_2_2" style="mask-type:luminance" maskUnits="userSpaceOnUse" x="30" y="30" width="196" height="196">
<path d="M206.4 30H49.6C38.7752 30 30 38.7752 30 49.6V206.4C30 217.225 38.7752 226 49.6 226H206.4C217.225 226 226 217.225 226 206.4V49.6C226 38.7752 217.225 30 206.4 30Z" fill="white"/>
</mask>
<g mask="url(#mask0_2_2)">
<path d="M222.08 30H33.92C31.755 30 30 31.755 30 33.92V65.28C30 67.445 31.755 69.2 33.92 69.2H222.08C224.245 69.2 226 67.445 226 65.28V33.92C226 31.755 224.245 30 222.08 30Z" fill="#671FEB"/>
<path d="M222.08 108.4H116.24C114.075 108.4 112.32 110.155 112.32 112.32V143.68C112.32 145.845 114.075 147.6 116.24 147.6H222.08C224.245 147.6 226 145.845 226 143.68V112.32C226 110.155 224.245 108.4 222.08 108.4Z" fill="#671FEB"/>
<path d="M222.08 186.8H116.24C114.075 186.8 112.32 188.555 112.32 190.72V222.08C112.32 224.245 114.075 226 116.24 226H222.08C224.245 226 226 224.245 226 222.08V190.72C226 188.555 224.245 186.8 222.08 186.8Z" fill="#671FEB"/>
<path d="M65.28 108.4H33.92C31.755 108.4 30 110.155 30 112.32V222.08C30 224.245 31.755 226 33.92 226H65.28C67.445 226 69.2 224.245 69.2 222.08V112.32C69.2 110.155 67.445 108.4 65.28 108.4Z" fill="#671FEB"/>
</g>
</g>
<defs>
<clipPath id="clip0_2_2">
<rect width="256" height="256" fill="white"/>
</clipPath>
</defs>
</svg>
