<svg width="18" height="18" viewBox="0 0 18 18" fill="none" xmlns="http://www.w3.org/2000/svg">
<g clip-path="url(#clip0_1_3)">
<path d="M18 0H0V18H18V0Z" fill="white"/>
<mask id="mask0_1_3" style="mask-type:luminance" maskUnits="userSpaceOnUse" x="2" y="2" width="14" height="14">
<path d="M14.5125 2.10938H3.4875C2.72638 2.10938 2.10938 2.72638 2.10938 3.4875V14.5125C2.10938 15.2736 2.72638 15.8906 3.4875 15.8906H14.5125C15.2736 15.8906 15.8906 15.2736 15.8906 14.5125V3.4875C15.8906 2.72638 15.2736 2.10938 14.5125 2.10938Z" fill="white"/>
</mask>
<g mask="url(#mask0_1_3)">
<path d="M15.615 2.10938H2.385C2.23278 2.10938 2.10938 2.23278 2.10938 2.385V4.59C2.10938 4.74222 2.23278 4.86562 2.385 4.86562H15.615C15.7672 4.86562 15.8906 4.74222 15.8906 4.59V2.385C15.8906 2.23278 15.7672 2.10938 15.615 2.10938Z" fill="currentColor"/>
<path d="M15.615 7.62187H8.17312C8.02089 7.62187 7.89749 7.74527 7.89749 7.8975V10.1025C7.89749 10.2547 8.02089 10.3781 8.17312 10.3781H15.615C15.7672 10.3781 15.8906 10.2547 15.8906 10.1025V7.8975C15.8906 7.74527 15.7672 7.62187 15.615 7.62187Z" fill="currentColor"/>
<path d="M15.615 13.1344H8.17312C8.02089 13.1344 7.89749 13.2578 7.89749 13.41V15.615C7.89749 15.7672 8.02089 15.8906 8.17312 15.8906H15.615C15.7672 15.8906 15.8906 15.7672 15.8906 15.615V13.41C15.8906 13.2578 15.7672 13.1344 15.615 13.1344Z" fill="currentColor"/>
<path d="M4.59 7.62187H2.385C2.23278 7.62187 2.10938 7.74527 2.10938 7.8975V15.615C2.10938 15.7672 2.23278 15.8906 2.385 15.8906H4.59C4.74222 15.8906 4.86562 15.7672 4.86562 15.615V7.8975C4.86562 7.74527 4.74222 7.62187 4.59 7.62187Z" fill="currentColor"/>
</g>
</g>
<defs>
<clipPath id="clip0_1_3">
<rect width="18" height="18" fill="white"/>
</clipPath>
</defs>
</svg>
